<?xml version="1.0" encoding="UTF-8" standalone="no"?><svg xmlns="http://www.w3.org/2000/svg" xmlns:xlink="http://www.w3.org/1999/xlink" clip-rule="evenodd" stroke-miterlimit="10" viewBox="0 0 1024 768"><desc>SVG generated by Keynote</desc><defs></defs><g transform="matrix(1.00, 0.00, -0.00, -1.00, 0.0, 768.0)"><g><clipPath id="clip0x7f9ffc5c7c20"><path d="M 0.0 768.0 L 1024.0 768.0 L 1024.0 0.0 L 0.0 0.0 Z M 0.0 768.0 "></path></clipPath><g clip-path="url(#clip0x7f9ffc5c7c20)"><image xlink:href="C69F8A4BB357ABB1A0F95B8BFBB7E603.jpeg" width="2048.00" height="1536.00" transform="matrix(0.50, 0.00, -0.00, -0.50, 0.0, 768.0)"></image></g></g><text xml:space="preserve" font-family="Helvetica-Light,Helvetica" font-size="78.4" fill="#FEFFFF" transform="matrix(1.00, 0.00, -0.00, -1.00, 67.6, 495.0)">S</text><text xml:space="preserve" font-family="Helvetica-Light,Helvetica" font-size="78.4" fill="#FEFFFF" transform="matrix(1.00, 0.00, -0.00, -1.00, 115.5, 495.0)">p</text><text xml:space="preserve" font-family="Helvetica-Light,Helvetica" font-size="78.4" fill="#FEFFFF" transform="matrix(1.00, 0.00, -0.00, -1.00, 163.4, 495.0)">e</text><text xml:space="preserve" font-family="Helvetica-Light,Helvetica" font-size="78.4" fill="#FEFFFF" transform="matrix(1.00, 0.00, -0.00, -1.00, 207.0, 495.0)">c</text><text xml:space="preserve" font-family="Helvetica-Light,Helvetica" font-size="78.4" fill="#FEFFFF" transform="matrix(1.00, 0.00, -0.00, -1.00, 250.6, 495.0)">i</text><text xml:space="preserve" font-family="Helvetica-Light,Helvetica" font-size="78.4" fill="#FEFFFF" transform="matrix(1.00, 0.00, -0.00, -1.00, 268.0, 495.0)">ï¬</text><text xml:space="preserve" font-family="Helvetica-Light,Helvetica" font-size="78.4" fill="#FEFFFF" transform="matrix(1.00, 0.00, -0.00, -1.00, 307.2, 495.0)">c</text><text xml:space="preserve" font-family="Helvetica-Light,Helvetica" font-size="78.4" fill="#FEFFFF" transform="matrix(1.00, 0.00, -0.00, -1.00, 350.8, 495.0)">a</text><text xml:space="preserve" font-family="Helvetica-Light,Helvetica" font-size="78.4" fill="#FEFFFF" transform="matrix(1.00, 0.00, -0.00, -1.00, 394.4, 495.0)">t</text><text xml:space="preserve" font-family="Helvetica-Light,Helvetica" font-size="78.4" fill="#FEFFFF" transform="matrix(1.00, 0.00, -0.00, -1.00, 416.2, 495.0)">i</text><text xml:space="preserve" font-family="Helvetica-Light,Helvetica" font-size="78.4" fill="#FEFFFF" transform="matrix(1.00, 0.00, -0.00, -1.00, 433.6, 495.0)">o</text><text xml:space="preserve" font-family="Helvetica-Light,Helvetica" font-size="78.4" fill="#FEFFFF" transform="matrix(1.00, 0.00, -0.00, -1.00, 477.2, 495.0)">n</text><text xml:space="preserve" font-family="Helvetica-Light,Helvetica" font-size="78.4" fill="#FEFFFF" transform="matrix(1.00, 0.00, -0.00, -1.00, 520.8, 495.0)"> </text><text xml:space="preserve" font-family="Helvetica-Light,Helvetica" font-size="78.4" fill="#FEFFFF" transform="matrix(1.00, 0.00, -0.00, -1.00, 542.6, 495.0)">b</text><text xml:space="preserve" font-family="Helvetica-Light,Helvetica" font-size="78.4" fill="#FEFFFF" transform="matrix(1.00, 0.00, -0.00, -1.00, 590.5, 495.0)">y</text><text xml:space="preserve" font-family="Helvetica-Light,Helvetica" font-size="78.4" fill="#FEFFFF" transform="matrix(1.00, 0.00, -0.00, -1.00, 629.7, 495.0)"> </text><text xml:space="preserve" font-family="Helvetica-Light,Helvetica" font-size="78.4" fill="#FEFFFF" transform="matrix(1.00, 0.00, -0.00, -1.00, 651.5, 495.0)">E</text><text xml:space="preserve" font-family="Helvetica-Light,Helvetica" font-size="78.4" fill="#FEFFFF" transform="matrix(1.00, 0.00, -0.00, -1.00, 699.4, 495.0)">x</text><text xml:space="preserve" font-family="Helvetica-Light,Helvetica" font-size="78.4" fill="#FEFFFF" transform="matrix(1.00, 0.00, -0.00, -1.00, 738.6, 495.0)">a</text><text xml:space="preserve" font-family="Helvetica-Light,Helvetica" font-size="78.4" fill="#FEFFFF" transform="matrix(1.00, 0.00, -0.00, -1.00, 782.2, 495.0)">m</text><text xml:space="preserve" font-family="Helvetica-Light,Helvetica" font-size="78.4" fill="#FEFFFF" transform="matrix(1.00, 0.00, -0.00, -1.00, 847.5, 495.0)">p</text><text xml:space="preserve" font-family="Helvetica-Light,Helvetica" font-size="78.4" fill="#FEFFFF" transform="matrix(1.00, 0.00, -0.00, -1.00, 895.4, 495.0)">l</text><text xml:space="preserve" font-family="Helvetica-Light,Helvetica" font-size="78.4" fill="#FEFFFF" transform="matrix(1.00, 0.00, -0.00, -1.00, 912.8, 495.0)">e</text><text xml:space="preserve" font-family="Helvetica-Light,Helvetica" font-size="78.4" fill="#FEFFFF" transform="matrix(1.00, 0.00, -0.00, -1.00, 956.4, 495.0)"> </text><text xml:space="preserve" font-family="Helvetica-Light,Helvetica" font-size="78.4" fill="#FEFFFF" transform="matrix(1.00, 0.00, -0.00, -1.00, 116.2, 401.0)">f</text><text xml:space="preserve" font-family="Helvetica-Light,Helvetica" font-size="78.4" fill="#FEFFFF" transform="matrix(1.00, 0.00, -0.00, -1.00, 138.0, 401.0)">o</text><text xml:space="preserve" font-family="Helvetica-Light,Helvetica" font-size="78.4" fill="#FEFFFF" transform="matrix(1.00, 0.00, -0.00, -1.00, 181.6, 401.0)">r</text><text xml:space="preserve" font-family="Helvetica-Light,Helvetica" font-size="78.4" fill="#FEFFFF" transform="matrix(1.00, 0.00, -0.00, -1.00, 207.7, 401.0)"> </text><text xml:space="preserve" font-family="Helvetica-Light,Helvetica" font-size="78.4" fill="#FEFFFF" transform="matrix(1.00, 0.00, -0.00, -1.00, 229.5, 401.0)">W</text><text xml:space="preserve" font-family="Helvetica-Light,Helvetica" font-size="78.4" fill="#FEFFFF" transform="matrix(1.00, 0.00, -0.00, -1.00, 297.8, 401.0)">e</text><text xml:space="preserve" font-family="Helvetica-Light,Helvetica" font-size="78.4" fill="#FEFFFF" transform="matrix(1.00, 0.00, -0.00, -1.00, 341.4, 401.0)">b</text><text xml:space="preserve" font-family="Helvetica-Light,Helvetica" font-size="78.4" fill="#FEFFFF" transform="matrix(1.00, 0.00, -0.00, -1.00, 389.3, 401.0)"> </text><text xml:space="preserve" font-family="Helvetica-Light,Helvetica" font-size="78.4" fill="#FEFFFF" transform="matrix(1.00, 0.00, -0.00, -1.00, 411.1, 401.0)">U</text><text xml:space="preserve" font-family="Helvetica-Light,Helvetica" font-size="78.4" fill="#FEFFFF" transform="matrix(1.00, 0.00, -0.00, -1.00, 467.7, 401.0)">I</text><text xml:space="preserve" font-family="Helvetica-Light,Helvetica" font-size="78.4" fill="#FEFFFF" transform="matrix(1.00, 0.00, -0.00, -1.00, 489.5, 401.0)"> </text><text xml:space="preserve" font-family="Helvetica-Light,Helvetica" font-size="78.4" fill="#FEFFFF" transform="matrix(1.00, 0.00, -0.00, -1.00, 511.3, 401.0)">A</text><text xml:space="preserve" font-family="Helvetica-Light,Helvetica" font-size="78.4" fill="#FEFFFF" transform="matrix(1.00, 0.00, -0.00, -1.00, 563.5, 401.0)">u</text><text xml:space="preserve" font-family="Helvetica-Light,Helvetica" font-size="78.4" fill="#FEFFFF" transform="matrix(1.00, 0.00, -0.00, -1.00, 607.1, 401.0)">t</text><text xml:space="preserve" font-family="Helvetica-Light,Helvetica" font-size="78.4" fill="#FEFFFF" transform="matrix(1.00, 0.00, -0.00, -1.00, 628.9, 401.0)">o</text><text xml:space="preserve" font-family="Helvetica-Light,Helvetica" font-size="78.4" fill="#FEFFFF" transform="matrix(1.00, 0.00, -0.00, -1.00, 672.5, 401.0)">m</text><text xml:space="preserve" font-family="Helvetica-Light,Helvetica" font-size="78.4" fill="#FEFFFF" transform="matrix(1.00, 0.00, -0.00, -1.00, 737.8, 401.0)">a</text><text xml:space="preserve" font-family="Helvetica-Light,Helvetica" font-size="78.4" fill="#FEFFFF" transform="matrix(1.00, 0.00, -0.00, -1.00, 781.4, 401.0)">t</text><text xml:space="preserve" font-family="Helvetica-Light,Helvetica" font-size="78.4" fill="#FEFFFF" transform="matrix(1.00, 0.00, -0.00, -1.00, 803.2, 401.0)">i</text><text xml:space="preserve" font-family="Helvetica-Light,Helvetica" font-size="78.4" fill="#FEFFFF" transform="matrix(1.00, 0.00, -0.00, -1.00, 820.6, 401.0)">o</text><text xml:space="preserve" font-family="Helvetica-Light,Helvetica" font-size="78.4" fill="#FEFFFF" transform="matrix(1.00, 0.00, -0.00, -1.00, 864.2, 401.0)">n</text><text xml:space="preserve" font-family="Helvetica-Light,Helvetica" font-size="32.0" fill="#FEFFFF" transform="matrix(1.00, 0.00, -0.00, -1.00, 365.2, 337.4)">I</text><text xml:space="preserve" font-family="Helvetica-Light,Helvetica" font-size="32.0" fill="#FEFFFF" transform="matrix(1.00, 0.00, -0.00, -1.00, 374.1, 337.4)">n</text><text xml:space="preserve" font-family="Helvetica-Light,Helvetica" font-size="32.0" fill="#FEFFFF" transform="matrix(1.00, 0.00, -0.00, -1.00, 391.9, 337.4)">n</text><text xml:space="preserve" font-family="Helvetica-Light,Helvetica" font-size="32.0" fill="#FEFFFF" transform="matrix(1.00, 0.00, -0.00, -1.00, 409.7, 337.4)">o</text><text xml:space="preserve" font-family="Helvetica-Light,Helvetica" font-size="32.0" fill="#FEFFFF" transform="matrix(1.00, 0.00, -0.00, -1.00, 427.5, 337.4)">v</text><text xml:space="preserve" font-family="Helvetica-Light,Helvetica" font-size="32.0" fill="#FEFFFF" transform="matrix(1.00, 0.00, -0.00, -1.00, 443.5, 337.4)">a</text><text xml:space="preserve" font-family="Helvetica-Light,Helvetica" font-size="32.0" fill="#FEFFFF" transform="matrix(1.00, 0.00, -0.00, -1.00, 461.3, 337.4)">t</text><text xml:space="preserve" font-family="Helvetica-Light,Helvetica" font-size="32.0" fill="#FEFFFF" transform="matrix(1.00, 0.00, -0.00, -1.00, 470.2, 337.4)">i</text><text xml:space="preserve" font-family="Helvetica-Light,Helvetica" font-size="32.0" fill="#FEFFFF" transform="matrix(1.00, 0.00, -0.00, -1.00, 477.3, 337.4)">o</text><text xml:space="preserve" font-family="Helvetica-Light,Helvetica" font-size="32.0" fill="#FEFFFF" transform="matrix(1.00, 0.00, -0.00, -1.00, 495.1, 337.4)">n</text><text xml:space="preserve" font-family="Helvetica-Light,Helvetica" font-size="32.0" fill="#FEFFFF" transform="matrix(1.00, 0.00, -0.00, -1.00, 512.9, 337.4)"> </text><text xml:space="preserve" font-family="Helvetica-Light,Helvetica" font-size="32.0" fill="#FEFFFF" transform="matrix(1.00, 0.00, -0.00, -1.00, 521.8, 337.4)">D</text><text xml:space="preserve" font-family="Helvetica-Light,Helvetica" font-size="32.0" fill="#FEFFFF" transform="matrix(1.00, 0.00, -0.00, -1.00, 544.9, 337.4)">a</text><text xml:space="preserve" font-family="Helvetica-Light,Helvetica" font-size="32.0" fill="#FEFFFF" transform="matrix(1.00, 0.00, -0.00, -1.00, 562.7, 337.4)">y</text><text xml:space="preserve" font-family="Helvetica-Light,Helvetica" font-size="32.0" fill="#FEFFFF" transform="matrix(1.00, 0.00, -0.00, -1.00, 578.7, 337.4)"> </text><text xml:space="preserve" font-family="Helvetica-Light,Helvetica" font-size="32.0" fill="#FEFFFF" transform="matrix(1.00, 0.00, -0.00, -1.00, 587.6, 337.4)">2</text><text xml:space="preserve" font-family="Helvetica-Light,Helvetica" font-size="32.0" fill="#FEFFFF" transform="matrix(1.00, 0.00, -0.00, -1.00, 605.4, 337.4)">0</text><text xml:space="preserve" font-family="Helvetica-Light,Helvetica" font-size="32.0" fill="#FEFFFF" transform="matrix(1.00, 0.00, -0.00, -1.00, 623.2, 337.4)">1</text><text xml:space="preserve" font-family="Helvetica-Light,Helvetica" font-size="32.0" fill="#FEFFFF" transform="matrix(1.00, 0.00, -0.00, -1.00, 641.0, 337.4)">4</text><text xml:space="preserve" font-family="Helvetica-Light,Helvetica" font-size="32.0" fill="#FEFFFF" transform="matrix(1.00, 0.00, -0.00, -1.00, 658.8, 337.4)"> </text><text xml:space="preserve" font-family="Helvetica-Light,Helvetica" font-size="32.0" fill="#FEFFFF" transform="matrix(1.00, 0.00, -0.00, -1.00, 180.9, 299.4)">T</text><text xml:space="preserve" font-family="Helvetica-Light,Helvetica" font-size="32.0" fill="#FEFFFF" transform="matrix(1.00, 0.00, -0.00, -1.00, 195.1, 299.4)">o</text><text xml:space="preserve" font-family="Helvetica-Light,Helvetica" font-size="32.0" fill="#FEFFFF" transform="matrix(1.00, 0.00, -0.00, -1.00, 212.9, 299.4)">d</text><text xml:space="preserve" font-family="Helvetica-Light,Helvetica" font-size="32.0" fill="#FEFFFF" transform="matrix(1.00, 0.00, -0.00, -1.00, 232.5, 299.4)">d</text><text xml:space="preserve" font-family="Helvetica-Light,Helvetica" font-size="32.0" fill="#FEFFFF" transform="matrix(1.00, 0.00, -0.00, -1.00, 252.0, 299.4)"> </text><text xml:space="preserve" font-family="Helvetica-Light,Helvetica" font-size="32.0" fill="#FEFFFF" transform="matrix(1.00, 0.00, -0.00, -1.00, 260.9, 299.4)">M</text><text xml:space="preserve" font-family="Helvetica-Light,Helvetica" font-size="32.0" fill="#FEFFFF" transform="matrix(1.00, 0.00, -0.00, -1.00, 287.6, 299.4)">e</text><text xml:space="preserve" font-family="Helvetica-Light,Helvetica" font-size="32.0" fill="#FEFFFF" transform="matrix(1.00, 0.00, -0.00, -1.00, 305.4, 299.4)">i</text><text xml:space="preserve" font-family="Helvetica-Light,Helvetica" font-size="32.0" fill="#FEFFFF" transform="matrix(1.00, 0.00, -0.00, -1.00, 312.5, 299.4)">n</text><text xml:space="preserve" font-family="Helvetica-Light,Helvetica" font-size="32.0" fill="#FEFFFF" transform="matrix(1.00, 0.00, -0.00, -1.00, 330.3, 299.4)">e</text><text xml:space="preserve" font-family="Helvetica-Light,Helvetica" font-size="32.0" fill="#FEFFFF" transform="matrix(1.00, 0.00, -0.00, -1.00, 348.1, 299.4)">r</text><text xml:space="preserve" font-family="Helvetica-Light,Helvetica" font-size="32.0" fill="#FEFFFF" transform="matrix(1.00, 0.00, -0.00, -1.00, 358.7, 299.4)">s</text><text xml:space="preserve" font-family="Helvetica-Light,Helvetica" font-size="32.0" fill="#FEFFFF" transform="matrix(1.00, 0.00, -0.00, -1.00, 374.7, 299.4)">h</text><text xml:space="preserve" font-family="Helvetica-Light,Helvetica" font-size="32.0" fill="#FEFFFF" transform="matrix(1.00, 0.00, -0.00, -1.00, 392.5, 299.4)">a</text><text xml:space="preserve" font-family="Helvetica-Light,Helvetica" font-size="32.0" fill="#FEFFFF" transform="matrix(1.00, 0.00, -0.00, -1.00, 410.3, 299.4)">g</text><text xml:space="preserve" font-family="Helvetica-Light,Helvetica" font-size="32.0" fill="#FEFFFF" transform="matrix(1.00, 0.00, -0.00, -1.00, 429.9, 299.4)">e</text><text xml:space="preserve" font-family="Helvetica-Light,Helvetica" font-size="32.0" fill="#FEFFFF" transform="matrix(1.00, 0.00, -0.00, -1.00, 447.6, 299.4)">n</text><text xml:space="preserve" font-family="Helvetica-Light,Helvetica" font-size="32.0" fill="#FEFFFF" transform="matrix(1.00, 0.00, -0.00, -1.00, 465.4, 299.4)">,</text><text xml:space="preserve" font-family="Helvetica-Light,Helvetica" font-size="32.0" fill="#FEFFFF" transform="matrix(1.00, 0.00, -0.00, -1.00, 474.3, 299.4)"> </text><text xml:space="preserve" font-family="Helvetica-Light,Helvetica" font-size="32.0" fill="#FEFFFF" transform="matrix(1.00, 0.00, -0.00, -1.00, 483.2, 299.4)">S</text><text xml:space="preserve" font-family="Helvetica-Light,Helvetica" font-size="32.0" fill="#FEFFFF" transform="matrix(1.00, 0.00, -0.00, -1.00, 502.8, 299.4)">e</text><text xml:space="preserve" font-family="Helvetica-Light,Helvetica" font-size="32.0" fill="#FEFFFF" transform="matrix(1.00, 0.00, -0.00, -1.00, 520.6, 299.4)">n</text><text xml:space="preserve" font-family="Helvetica-Light,Helvetica" font-size="32.0" fill="#FEFFFF" transform="matrix(1.00, 0.00, -0.00, -1.00, 538.4, 299.4)">i</text><text xml:space="preserve" font-family="Helvetica-Light,Helvetica" font-size="32.0" fill="#FEFFFF" transform="matrix(1.00, 0.00, -0.00, -1.00, 545.5, 299.4)">o</text><text xml:space="preserve" font-family="Helvetica-Light,Helvetica" font-size="32.0" fill="#FEFFFF" transform="matrix(1.00, 0.00, -0.00, -1.00, 563.3, 299.4)">r</text><text xml:space="preserve" font-family="Helvetica-Light,Helvetica" font-size="32.0" fill="#FEFFFF" transform="matrix(1.00, 0.00, -0.00, -1.00, 573.9, 299.4)"> </text><text xml:space="preserve" font-family="Helvetica-Light,Helvetica" font-size="32.0" fill="#FEFFFF" transform="matrix(1.00, 0.00, -0.00, -1.00, 582.8, 299.4)">S</text><text xml:space="preserve" font-family="Helvetica-Light,Helvetica" font-size="32.0" fill="#FEFFFF" transform="matrix(1.00, 0.00, -0.00, -1.00, 602.4, 299.4)">o</text><text xml:space="preserve" font-family="Helvetica-Light,Helvetica" font-size="32.0" fill="#FEFFFF" transform="matrix(1.00, 0.00, -0.00, -1.00, 620.2, 299.4)">f</text><text xml:space="preserve" font-family="Helvetica-Light,Helvetica" font-size="32.0" fill="#FEFFFF" transform="matrix(1.00, 0.00, -0.00, -1.00, 629.1, 299.4)">t</text><text xml:space="preserve" font-family="Helvetica-Light,Helvetica" font-size="32.0" fill="#FEFFFF" transform="matrix(1.00, 0.00, -0.00, -1.00, 638.0, 299.4)">w</text><text xml:space="preserve" font-family="Helvetica-Light,Helvetica" font-size="32.0" fill="#FEFFFF" transform="matrix(1.00, 0.00, -0.00, -1.00, 661.1, 299.4)">a</text><text xml:space="preserve" font-family="Helvetica-Light,Helvetica" font-size="32.0" fill="#FEFFFF" transform="matrix(1.00, 0.00, -0.00, -1.00, 678.8, 299.4)">r</text><text xml:space="preserve" font-family="Helvetica-Light,Helvetica" font-size="32.0" fill="#FEFFFF" transform="matrix(1.00, 0.00, -0.00, -1.00, 688.9, 299.4)">e</text><text xml:space="preserve" font-family="Helvetica-Light,Helvetica" font-size="32.0" fill="#FEFFFF" transform="matrix(1.00, 0.00, -0.00, -1.00, 706.7, 299.4)"> </text><text xml:space="preserve" font-family="Helvetica-Light,Helvetica" font-size="32.0" fill="#FEFFFF" transform="matrix(1.00, 0.00, -0.00, -1.00, 715.6, 299.4)">A</text><text xml:space="preserve" font-family="Helvetica-Light,Helvetica" font-size="32.0" fill="#FEFFFF" transform="matrix(1.00, 0.00, -0.00, -1.00, 737.0, 299.4)">r</text><text xml:space="preserve" font-family="Helvetica-Light,Helvetica" font-size="32.0" fill="#FEFFFF" transform="matrix(1.00, 0.00, -0.00, -1.00, 747.0, 299.4)">c</text><text xml:space="preserve" font-family="Helvetica-Light,Helvetica" font-size="32.0" fill="#FEFFFF" transform="matrix(1.00, 0.00, -0.00, -1.00, 764.8, 299.4)">h</text><text xml:space="preserve" font-family="Helvetica-Light,Helvetica" font-size="32.0" fill="#FEFFFF" transform="matrix(1.00, 0.00, -0.00, -1.00, 782.6, 299.4)">i</text><text xml:space="preserve" font-family="Helvetica-Light,Helvetica" font-size="32.0" fill="#FEFFFF" transform="matrix(1.00, 0.00, -0.00, -1.00, 789.7, 299.4)">t</text><text xml:space="preserve" font-family="Helvetica-Light,Helvetica" font-size="32.0" fill="#FEFFFF" transform="matrix(1.00, 0.00, -0.00, -1.00, 798.6, 299.4)">e</text><text xml:space="preserve" font-family="Helvetica-Light,Helvetica" font-size="32.0" fill="#FEFFFF" transform="matrix(1.00, 0.00, -0.00, -1.00, 816.4, 299.4)">c</text><text xml:space="preserve" font-family="Helvetica-Light,Helvetica" font-size="32.0" fill="#FEFFFF" transform="matrix(1.00, 0.00, -0.00, -1.00, 834.2, 299.4)">t</text></g></svg>