<?xml version="1.0" encoding="UTF-8" standalone="no"?><svg xmlns="http://www.w3.org/2000/svg" xmlns:xlink="http://www.w3.org/1999/xlink" clip-rule="evenodd" stroke-miterlimit="10" viewBox="0 0 459 123"><desc>SVG generated by Keynote</desc><defs></defs><g transform="matrix(1.00, 0.00, -0.00, -1.00, 0.0, 123.0)"><g><clipPath id="clip0x7fdf1f64e5e0"><path d="M 0.8 8.4 L 347.5 8.4 L 347.5 122.4 L 0.8 122.4 Z M 0.8 8.4 "></path></clipPath><g clip-path="url(#clip0x7fdf1f64e5e0)"><image xlink:href="46E5478D121E5E700EDA135E3B99D6B4.png" width="345.00" height="112.00" transform="matrix(1.00, 0.00, -0.00, -1.00, 1.8, 121.4)" opacity="0.80"></image><path d="M 7.8 30.4 L 8.0 100.4 C 8.0 108.7 14.5 115.0 22.8 115.0 L 325.5 115.0 C 333.8 115.0 341.0 108.7 341.0 100.4 L 341.0 30.4 C 341.0 22.1 333.8 15.0 325.5 15.0 L 22.8 15.0 C 14.5 15.0 7.8 22.1 7.8 30.4 Z M 7.8 30.4 " fill="#0065C0"></path></g></g><image xlink:href="C0774AC6A217C4FBA03701641E3A4553.png" width="279.00" height="28.00" transform="matrix(1.00, 0.00, -0.00, -1.00, 36.0, 76.0)"></image><g><clipPath id="clip0x7fdf1f5ce4e0"><path d="M 5.1 15.4 L 345.9 15.4 L 345.9 115.4 L 5.1 115.4 Z M 5.1 15.4 "></path></clipPath><g clip-path="url(#clip0x7fdf1f5ce4e0)"><text xml:space="preserve" font-family="Helvetica-Light,Helvetica" font-size="24.0" fill="#FEFFFF" transform="matrix(1.00, 0.00, -0.00, -1.00, 35.7, 56.3)">L</text><text xml:space="preserve" font-family="Helvetica-Light,Helvetica" font-size="24.0" fill="#FEFFFF" transform="matrix(1.00, 0.00, -0.00, -1.00, 49.0, 56.3)">o</text><text xml:space="preserve" font-family="Helvetica-Light,Helvetica" font-size="24.0" fill="#FEFFFF" transform="matrix(1.00, 0.00, -0.00, -1.00, 62.4, 56.3)">a</text><text xml:space="preserve" font-family="Helvetica-Light,Helvetica" font-size="24.0" fill="#FEFFFF" transform="matrix(1.00, 0.00, -0.00, -1.00, 75.7, 56.3)">d</text><text xml:space="preserve" font-family="Helvetica-Light,Helvetica" font-size="24.0" fill="#FEFFFF" transform="matrix(1.00, 0.00, -0.00, -1.00, 90.4, 56.3)"> </text><text xml:space="preserve" font-family="Helvetica-Light,Helvetica" font-size="24.0" fill="#FEFFFF" transform="matrix(1.00, 0.00, -0.00, -1.00, 97.0, 56.3)">T</text><text xml:space="preserve" font-family="Helvetica-Light,Helvetica" font-size="24.0" fill="#FEFFFF" transform="matrix(1.00, 0.00, -0.00, -1.00, 107.7, 56.3)">e</text><text xml:space="preserve" font-family="Helvetica-Light,Helvetica" font-size="24.0" fill="#FEFFFF" transform="matrix(1.00, 0.00, -0.00, -1.00, 121.1, 56.3)">s</text><text xml:space="preserve" font-family="Helvetica-Light,Helvetica" font-size="24.0" fill="#FEFFFF" transform="matrix(1.00, 0.00, -0.00, -1.00, 133.1, 56.3)">t</text><text xml:space="preserve" font-family="Helvetica-Light,Helvetica" font-size="24.0" fill="#FEFFFF" transform="matrix(1.00, 0.00, -0.00, -1.00, 139.7, 56.3)">s</text><text xml:space="preserve" font-family="Helvetica-Light,Helvetica" font-size="24.0" fill="#FEFFFF" transform="matrix(1.00, 0.00, -0.00, -1.00, 151.7, 56.3)"> </text><text xml:space="preserve" font-family="Helvetica-Light,Helvetica" font-size="24.0" fill="#FEFFFF" transform="matrix(1.00, 0.00, -0.00, -1.00, 158.4, 56.3)">(</text><text xml:space="preserve" font-family="Helvetica-Light,Helvetica" font-size="24.0" fill="#FEFFFF" transform="matrix(1.00, 0.00, -0.00, -1.00, 166.4, 56.3)">V</text><text xml:space="preserve" font-family="Helvetica-Light,Helvetica" font-size="24.0" fill="#FEFFFF" transform="matrix(1.00, 0.00, -0.00, -1.00, 180.6, 56.3)">i</text><text xml:space="preserve" font-family="Helvetica-Light,Helvetica" font-size="24.0" fill="#FEFFFF" transform="matrix(1.00, 0.00, -0.00, -1.00, 186.0, 56.3)">s</text><text xml:space="preserve" font-family="Helvetica-Light,Helvetica" font-size="24.0" fill="#FEFFFF" transform="matrix(1.00, 0.00, -0.00, -1.00, 198.0, 56.3)">u</text><text xml:space="preserve" font-family="Helvetica-Light,Helvetica" font-size="24.0" fill="#FEFFFF" transform="matrix(1.00, 0.00, -0.00, -1.00, 211.3, 56.3)">a</text><text xml:space="preserve" font-family="Helvetica-Light,Helvetica" font-size="24.0" fill="#FEFFFF" transform="matrix(1.00, 0.00, -0.00, -1.00, 224.6, 56.3)">l</text><text xml:space="preserve" font-family="Helvetica-Light,Helvetica" font-size="24.0" fill="#FEFFFF" transform="matrix(1.00, 0.00, -0.00, -1.00, 230.0, 56.3)"> </text><text xml:space="preserve" font-family="Helvetica-Light,Helvetica" font-size="24.0" fill="#FEFFFF" transform="matrix(1.00, 0.00, -0.00, -1.00, 236.6, 56.3)">S</text><text xml:space="preserve" font-family="Helvetica-Light,Helvetica" font-size="24.0" fill="#FEFFFF" transform="matrix(1.00, 0.00, -0.00, -1.00, 251.3, 56.3)">t</text><text xml:space="preserve" font-family="Helvetica-Light,Helvetica" font-size="24.0" fill="#FEFFFF" transform="matrix(1.00, 0.00, -0.00, -1.00, 258.0, 56.3)">u</text><text xml:space="preserve" font-family="Helvetica-Light,Helvetica" font-size="24.0" fill="#FEFFFF" transform="matrix(1.00, 0.00, -0.00, -1.00, 271.3, 56.3)">d</text><text xml:space="preserve" font-family="Helvetica-Light,Helvetica" font-size="24.0" fill="#FEFFFF" transform="matrix(1.00, 0.00, -0.00, -1.00, 286.0, 56.3)">i</text><text xml:space="preserve" font-family="Helvetica-Light,Helvetica" font-size="24.0" fill="#FEFFFF" transform="matrix(1.00, 0.00, -0.00, -1.00, 291.3, 56.3)">o</text><text xml:space="preserve" font-family="Helvetica-Light,Helvetica" font-size="24.0" fill="#FEFFFF" transform="matrix(1.00, 0.00, -0.00, -1.00, 304.7, 56.3)">)</text></g></g><g><clipPath id="clip0x7fdf1f6558c0"><path d="M 344.7 0.4 L 458.5 0.4 L 458.5 110.5 L 344.7 110.5 Z M 344.7 0.4 "></path></clipPath><g clip-path="url(#clip0x7fdf1f6558c0)"><image xlink:href="EAA7FA6A0154C40C1A507CAEC1887E3C.png" width="114.00" height="110.00" transform="matrix(1.00, 0.00, -0.00, -1.00, 344.7, 110.5)" opacity="0.70"></image><image xlink:href="1234B60F8154B85CD5D1A440713E1C79.png" width="600.00" height="570.00" transform="matrix(0.12, 0.00, -0.00, -0.12, 364.7, 100.5)"></image></g></g><g><clipPath id="clip0x7fdf1f656af0"><path d="M 388.0 92.0 L 415.0 92.0 L 415.0 66.0 L 388.0 66.0 Z M 388.5 91.9 "></path></clipPath><g clip-path="url(#clip0x7fdf1f656af0)"><g><clipPath id="clip0x7fdf1f6578c0"><path d="M 388.5 65.6 L 414.7 65.6 L 414.7 91.9 L 388.5 91.9 Z M 388.5 65.6 "></path></clipPath><g clip-path="url(#clip0x7fdf1f6578c0)"><image xlink:href="1C6D1BD7651898CB584247A81BA404A8.png" width="128.00" height="128.00" transform="matrix(0.21, 0.00, -0.00, -0.21, 388.5, 91.9)"></image></g></g></g></g><g><clipPath id="clip0x7fdf1f1fb470"><path d="M 377.2 25.3 L 424.1 25.3 L 424.1 59.3 L 377.2 59.3 Z M 377.2 25.3 "></path></clipPath><g clip-path="url(#clip0x7fdf1f1fb470)"><text xml:space="preserve" font-family="Helvetica-Light,Helvetica" font-size="20.0" fill="#FEFFFF" transform="matrix(1.00, 0.00, -0.00, -1.00, 382.7, 34.9)">P</text><text xml:space="preserve" font-family="Helvetica-Light,Helvetica" font-size="20.0" fill="#FEFFFF" transform="matrix(1.00, 0.00, -0.00, -1.00, 394.9, 34.9)">e</text><text xml:space="preserve" font-family="Helvetica-Light,Helvetica" font-size="20.0" fill="#FEFFFF" transform="matrix(1.00, 0.00, -0.00, -1.00, 406.0, 34.9)">r</text><text xml:space="preserve" font-family="Helvetica-Light,Helvetica" font-size="20.0" fill="#FEFFFF" transform="matrix(1.00, 0.00, -0.00, -1.00, 413.1, 34.9)">f</text></g></g></g></svg>