<?xml version="1.0" encoding="UTF-8" standalone="no"?><svg xmlns="http://www.w3.org/2000/svg" xmlns:xlink="http://www.w3.org/1999/xlink" clip-rule="evenodd" stroke-miterlimit="10" viewBox="0 0 87 120"><desc>SVG generated by Keynote</desc><defs></defs><g transform="matrix(1.00, 0.00, -0.00, -1.00, 0.0, 120.0)"><g><clipPath id="clip0x7f9ffc052c50"><path d="M 37.9 81.5 L 37.9 119.4 L 49.5 119.4 L 49.5 81.5 Z M 37.9 81.5 "></path></clipPath><g clip-path="url(#clip0x7f9ffc052c50)"><path d="M -0.5 0.3 L 26.3 0.3 L 27.5 0.3 " fill="none" stroke="#FEFFFE" stroke-width="2.00" transform="matrix(0.00, 1.00, 1.00, 0.00, 43.7, 82.5)"></path><path d="M 48.8 109.0 L 44.0 118.6 L 39.2 109.0 Z M 48.8 109.0 " fill="#FEFFFE"></path></g></g><g><clipPath id="clip0x7f9ffc4465c0"><path d="M 49.5 38.4 L 49.5 0.5 L 37.9 0.5 L 37.9 38.4 Z M 49.5 38.4 "></path></clipPath><g clip-path="url(#clip0x7f9ffc4465c0)"><path d="M 0.4 -0.3 L 26.3 -0.3 L 27.4 -0.3 " fill="none" stroke="#FEFFFE" stroke-width="2.00" transform="matrix(0.00, -1.00, -1.00, 0.00, 43.7, 37.4)"></path><path d="M 39.2 11.0 L 44.0 1.4 L 48.8 11.0 Z M 39.2 11.0 " fill="#FEFFFE"></path></g></g><g><clipPath id="clip0x7f9ffc447c50"><path d="M -0.1 39.8 L 87.6 39.8 L 87.6 80.8 L -0.1 80.8 Z M -0.1 39.8 "></path></clipPath><g clip-path="url(#clip0x7f9ffc447c50)"><text xml:space="preserve" font-family="Helvetica-Light,Helvetica" font-size="24.0" fill="#FEFFFF" transform="matrix(1.00, 0.00, -0.00, -1.00, 6.4, 51.3)">P</text><text xml:space="preserve" font-family="Helvetica-Light,Helvetica" font-size="24.0" fill="#FEFFFF" transform="matrix(1.00, 0.00, -0.00, -1.00, 21.1, 51.3)">a</text><text xml:space="preserve" font-family="Helvetica-Light,Helvetica" font-size="24.0" fill="#FEFFFF" transform="matrix(1.00, 0.00, -0.00, -1.00, 34.4, 51.3)">i</text><text xml:space="preserve" font-family="Helvetica-Light,Helvetica" font-size="24.0" fill="#FEFFFF" transform="matrix(1.00, 0.00, -0.00, -1.00, 39.7, 51.3)">r</text><text xml:space="preserve" font-family="Helvetica-Light,Helvetica" font-size="24.0" fill="#FEFFFF" transform="matrix(1.00, 0.00, -0.00, -1.00, 47.7, 51.3)">i</text><text xml:space="preserve" font-family="Helvetica-Light,Helvetica" font-size="24.0" fill="#FEFFFF" transform="matrix(1.00, 0.00, -0.00, -1.00, 53.1, 51.3)">n</text><text xml:space="preserve" font-family="Helvetica-Light,Helvetica" font-size="24.0" fill="#FEFFFF" transform="matrix(1.00, 0.00, -0.00, -1.00, 66.4, 51.3)">g</text></g></g></g></svg>