<?xml version="1.0" encoding="UTF-8" standalone="no"?><svg xmlns="http://www.w3.org/2000/svg" xmlns:xlink="http://www.w3.org/1999/xlink" clip-rule="evenodd" stroke-miterlimit="10" viewBox="0 0 482 155"><desc>SVG generated by Keynote</desc><defs></defs><g transform="matrix(1.00, 0.00, -0.00, -1.00, 0.0, 155.0)"><g><clipPath id="clip0x7f9ffc0e6100"><path d="M 140.7 19.4 L 481.1 19.4 L 481.1 133.4 L 140.7 133.4 Z M 140.7 19.4 "></path></clipPath><g clip-path="url(#clip0x7f9ffc0e6100)"><image xlink:href="B461B48F6523032A6EE1F3D7E12E9B98.png" width="338.00" height="112.00" transform="matrix(1.00, 0.00, -0.00, -1.00, 141.7, 132.4)" opacity="0.80"></image><path d="M 147.7 41.4 L 148.0 111.4 C 148.0 119.7 154.4 126.0 162.7 126.0 L 459.1 126.0 C 467.4 126.0 474.0 119.7 474.0 111.4 L 474.0 41.4 C 474.0 33.1 467.4 26.0 459.1 26.0 L 162.7 26.0 C 154.4 26.0 147.7 33.1 147.7 41.4 Z M 147.7 41.4 " fill="#0065C0"></path></g></g><image xlink:href="102C3BFF84401B5A4B1D4DE51F60C19B.png" width="281.00" height="28.00" transform="matrix(1.00, 0.00, -0.00, -1.00, 171.0, 87.0)"></image><g><clipPath id="clip0x7f9ffc0ee0b0"><path d="M 145.0 26.4 L 479.4 26.4 L 479.4 126.4 L 145.0 126.4 Z M 145.0 26.4 "></path></clipPath><g clip-path="url(#clip0x7f9ffc0ee0b0)"><text xml:space="preserve" font-family="Helvetica-Light,Helvetica" font-size="24.0" fill="#FEFFFF" transform="matrix(1.00, 0.00, -0.00, -1.00, 171.5, 67.3)">S</text><text xml:space="preserve" font-family="Helvetica-Light,Helvetica" font-size="24.0" fill="#FEFFFF" transform="matrix(1.00, 0.00, -0.00, -1.00, 186.2, 67.3)">t</text><text xml:space="preserve" font-family="Helvetica-Light,Helvetica" font-size="24.0" fill="#FEFFFF" transform="matrix(1.00, 0.00, -0.00, -1.00, 192.9, 67.3)">e</text><text xml:space="preserve" font-family="Helvetica-Light,Helvetica" font-size="24.0" fill="#FEFFFF" transform="matrix(1.00, 0.00, -0.00, -1.00, 206.2, 67.3)">p</text><text xml:space="preserve" font-family="Helvetica-Light,Helvetica" font-size="24.0" fill="#FEFFFF" transform="matrix(1.00, 0.00, -0.00, -1.00, 220.9, 67.3)"> </text><text xml:space="preserve" font-family="Helvetica-Light,Helvetica" font-size="24.0" fill="#FEFFFF" transform="matrix(1.00, 0.00, -0.00, -1.00, 227.6, 67.3)">B</text><text xml:space="preserve" font-family="Helvetica-Light,Helvetica" font-size="24.0" fill="#FEFFFF" transform="matrix(1.00, 0.00, -0.00, -1.00, 243.6, 67.3)">i</text><text xml:space="preserve" font-family="Helvetica-Light,Helvetica" font-size="24.0" fill="#FEFFFF" transform="matrix(1.00, 0.00, -0.00, -1.00, 248.9, 67.3)">n</text><text xml:space="preserve" font-family="Helvetica-Light,Helvetica" font-size="24.0" fill="#FEFFFF" transform="matrix(1.00, 0.00, -0.00, -1.00, 262.2, 67.3)">d</text><text xml:space="preserve" font-family="Helvetica-Light,Helvetica" font-size="24.0" fill="#FEFFFF" transform="matrix(1.00, 0.00, -0.00, -1.00, 276.9, 67.3)">i</text><text xml:space="preserve" font-family="Helvetica-Light,Helvetica" font-size="24.0" fill="#FEFFFF" transform="matrix(1.00, 0.00, -0.00, -1.00, 282.2, 67.3)">n</text><text xml:space="preserve" font-family="Helvetica-Light,Helvetica" font-size="24.0" fill="#FEFFFF" transform="matrix(1.00, 0.00, -0.00, -1.00, 295.6, 67.3)">g</text><text xml:space="preserve" font-family="Helvetica-Light,Helvetica" font-size="24.0" fill="#FEFFFF" transform="matrix(1.00, 0.00, -0.00, -1.00, 310.2, 67.3)">s</text><text xml:space="preserve" font-family="Helvetica-Light,Helvetica" font-size="24.0" fill="#FEFFFF" transform="matrix(1.00, 0.00, -0.00, -1.00, 322.2, 67.3)"> </text><text xml:space="preserve" font-family="Helvetica-Light,Helvetica" font-size="24.0" fill="#FEFFFF" transform="matrix(1.00, 0.00, -0.00, -1.00, 328.9, 67.3)">(</text><text xml:space="preserve" font-family="Helvetica-Light,Helvetica" font-size="24.0" fill="#FEFFFF" transform="matrix(1.00, 0.00, -0.00, -1.00, 336.9, 67.3)">S</text><text xml:space="preserve" font-family="Helvetica-Light,Helvetica" font-size="24.0" fill="#FEFFFF" transform="matrix(1.00, 0.00, -0.00, -1.00, 351.6, 67.3)">p</text><text xml:space="preserve" font-family="Helvetica-Light,Helvetica" font-size="24.0" fill="#FEFFFF" transform="matrix(1.00, 0.00, -0.00, -1.00, 366.2, 67.3)">e</text><text xml:space="preserve" font-family="Helvetica-Light,Helvetica" font-size="24.0" fill="#FEFFFF" transform="matrix(1.00, 0.00, -0.00, -1.00, 379.6, 67.3)">c</text><text xml:space="preserve" font-family="Helvetica-Light,Helvetica" font-size="24.0" fill="#FEFFFF" transform="matrix(1.00, 0.00, -0.00, -1.00, 392.9, 67.3)">F</text><text xml:space="preserve" font-family="Helvetica-Light,Helvetica" font-size="24.0" fill="#FEFFFF" transform="matrix(1.00, 0.00, -0.00, -1.00, 406.3, 67.3)">l</text><text xml:space="preserve" font-family="Helvetica-Light,Helvetica" font-size="24.0" fill="#FEFFFF" transform="matrix(1.00, 0.00, -0.00, -1.00, 411.6, 67.3)">o</text><text xml:space="preserve" font-family="Helvetica-Light,Helvetica" font-size="24.0" fill="#FEFFFF" transform="matrix(1.00, 0.00, -0.00, -1.00, 424.9, 67.3)">w</text><text xml:space="preserve" font-family="Helvetica-Light,Helvetica" font-size="24.0" fill="#FEFFFF" transform="matrix(1.00, 0.00, -0.00, -1.00, 442.3, 67.3)">)</text></g></g><g><clipPath id="clip0x7f9ffc0f8fc0"><path d="M 0.4 7.7 L 117.8 7.7 L 117.8 125.1 L 0.4 125.1 Z M 0.4 7.7 "></path></clipPath><g clip-path="url(#clip0x7f9ffc0f8fc0)"><image xlink:href="0AF7B2DC9F39C8B2D7174F9DC22B1930.png" width="117.00" height="117.00" transform="matrix(1.00, 0.00, -0.00, -1.00, 0.4, 125.1)" opacity="0.70"></image><image xlink:href="DE2DC7BCFDAFAD5E9A2497BCB4DE5460.png" width="512.00" height="512.00" transform="matrix(0.15, 0.00, -0.00, -0.15, 20.4, 115.1)"></image></g></g><g><clipPath id="clip0x7f9ffc0fbf00"><path d="M 46.0 104.0 L 72.0 104.0 L 72.0 78.0 L 46.0 78.0 Z M 46.2 104.4 "></path></clipPath><g clip-path="url(#clip0x7f9ffc0fbf00)"><g><clipPath id="clip0x7f9ffc0fb450"><path d="M 46.2 78.1 L 72.5 78.1 L 72.5 104.4 L 46.2 104.4 Z M 46.2 78.1 "></path></clipPath><g clip-path="url(#clip0x7f9ffc0fb450)"><image xlink:href="../../0738260A-CDD4-4D00-A704-1922E09D0BC6/assets/7463D99FC55CCFCA5284A104204DE0AE.png" width="128.00" height="128.00" transform="matrix(0.21, 0.00, -0.00, -0.21, 46.2, 104.4)"></image></g></g></g></g><g><clipPath id="clip0x7f9ffc0a1ef0"><path d="M 293.9 109.2 L 293.9 154.4 L 305.5 154.4 L 305.5 109.2 Z M 293.9 109.2 "></path></clipPath><g clip-path="url(#clip0x7f9ffc0a1ef0)"><path d="M -0.2 0.3 L 33.6 0.3 L 34.8 0.3 " fill="none" stroke="#FEFFFE" stroke-width="2.00" transform="matrix(0.00, 1.00, 1.00, 0.00, 299.7, 110.2)"></path><path d="M 304.8 144.0 L 300.0 153.6 L 295.2 144.0 Z M 304.8 144.0 " fill="#FEFFFE"></path></g></g><g><clipPath id="clip0x7f9ffc095300"><path d="M 305.5 49.7 L 305.5 0.3 L 293.9 0.3 L 293.9 49.7 Z M 305.5 49.7 "></path></clipPath><g clip-path="url(#clip0x7f9ffc095300)"><path d="M -0.3 -0.3 L 37.9 -0.3 L 38.7 -0.3 " fill="none" stroke="#FEFFFE" stroke-width="2.00" transform="matrix(0.00, -1.00, -1.00, 0.00, 299.7, 48.7)"></path><path d="M 295.2 11.0 L 300.0 1.4 L 304.8 11.0 Z M 295.2 11.0 " fill="#FEFFFE"></path></g></g></g></svg>