<?xml version="1.0" encoding="UTF-8" standalone="no"?><svg xmlns="http://www.w3.org/2000/svg" xmlns:xlink="http://www.w3.org/1999/xlink" clip-rule="evenodd" stroke-miterlimit="10" viewBox="0 0 1024 768"><desc>SVG generated by Keynote</desc><defs></defs><g transform="matrix(1.00, 0.00, -0.00, -1.00, 0.0, 768.0)"><g><clipPath id="clip0x7f9ffc6cfc30"><path d="M 0.0 768.0 L 1024.0 768.0 L 1024.0 0.0 L 0.0 0.0 Z M 0.0 768.0 "></path></clipPath><g clip-path="url(#clip0x7f9ffc6cfc30)"><image xlink:href="../../A458083D-D69B-45C4-902F-6A2AFF5FFDFF/assets/C69F8A4BB357ABB1A0F95B8BFBB7E603.jpeg" width="2048.00" height="1536.00" transform="matrix(0.50, 0.00, -0.00, -0.50, 0.0, 768.0)"></image></g></g><g><clipPath id="clip0x7f9ffc6d3f70"><path d="M 209.2 481.3 L 548.6 481.3 L 548.6 595.3 L 209.2 595.3 Z M 209.2 481.3 "></path></clipPath><g clip-path="url(#clip0x7f9ffc6d3f70)"><image xlink:href="../../B581CB2C-6C5F-4EB9-B176-04F9169BA198/assets/6957D85239BADE8336FB99E508C14920.png" width="337.00" height="112.00" transform="matrix(1.00, 0.00, -0.00, -1.00, 210.2, 594.3)" opacity="0.80"></image><path d="M 216.2 503.3 L 216.0 573.3 C 216.0 581.6 222.9 588.0 231.2 588.0 L 526.6 588.0 C 534.9 588.0 542.0 581.6 542.0 573.3 L 542.0 503.3 C 542.0 495.0 534.9 488.0 526.6 488.0 L 231.2 488.0 C 222.9 488.0 216.2 495.0 216.2 503.3 Z M 216.2 503.3 " fill="#1497FC"></path></g></g><image xlink:href="../../B581CB2C-6C5F-4EB9-B176-04F9169BA198/assets/18605BC189C75AEE4E31CFDC96B284F1.png" width="219.00" height="28.00" transform="matrix(1.00, 0.00, -0.00, -1.00, 270.0, 563.0)"></image><g><clipPath id="clip0x7f9ffc6d22d0"><path d="M 213.6 488.3 L 546.9 488.3 L 546.9 588.3 L 213.6 588.3 Z M 213.6 488.3 "></path></clipPath><g clip-path="url(#clip0x7f9ffc6d22d0)"><text xml:space="preserve" font-family="Helvetica-Light,Helvetica" font-size="24.0" fill="#FEFFFF" transform="matrix(1.00, 0.00, -0.00, -1.00, 271.5, 543.5)">A</text><text xml:space="preserve" font-family="Helvetica-Light,Helvetica" font-size="24.0" fill="#FEFFFF" transform="matrix(1.00, 0.00, -0.00, -1.00, 287.5, 543.5)">c</text><text xml:space="preserve" font-family="Helvetica-Light,Helvetica" font-size="24.0" fill="#FEFFFF" transform="matrix(1.00, 0.00, -0.00, -1.00, 300.9, 543.5)">c</text><text xml:space="preserve" font-family="Helvetica-Light,Helvetica" font-size="24.0" fill="#FEFFFF" transform="matrix(1.00, 0.00, -0.00, -1.00, 314.2, 543.5)">e</text><text xml:space="preserve" font-family="Helvetica-Light,Helvetica" font-size="24.0" fill="#FEFFFF" transform="matrix(1.00, 0.00, -0.00, -1.00, 327.6, 543.5)">p</text><text xml:space="preserve" font-family="Helvetica-Light,Helvetica" font-size="24.0" fill="#FEFFFF" transform="matrix(1.00, 0.00, -0.00, -1.00, 342.2, 543.5)">t</text><text xml:space="preserve" font-family="Helvetica-Light,Helvetica" font-size="24.0" fill="#FEFFFF" transform="matrix(1.00, 0.00, -0.00, -1.00, 348.9, 543.5)">a</text><text xml:space="preserve" font-family="Helvetica-Light,Helvetica" font-size="24.0" fill="#FEFFFF" transform="matrix(1.00, 0.00, -0.00, -1.00, 362.2, 543.5)">n</text><text xml:space="preserve" font-family="Helvetica-Light,Helvetica" font-size="24.0" fill="#FEFFFF" transform="matrix(1.00, 0.00, -0.00, -1.00, 375.6, 543.5)">c</text><text xml:space="preserve" font-family="Helvetica-Light,Helvetica" font-size="24.0" fill="#FEFFFF" transform="matrix(1.00, 0.00, -0.00, -1.00, 388.9, 543.5)">e</text><text xml:space="preserve" font-family="Helvetica-Light,Helvetica" font-size="24.0" fill="#FEFFFF" transform="matrix(1.00, 0.00, -0.00, -1.00, 402.3, 543.5)"> </text><text xml:space="preserve" font-family="Helvetica-Light,Helvetica" font-size="24.0" fill="#FEFFFF" transform="matrix(1.00, 0.00, -0.00, -1.00, 408.9, 543.5)">C</text><text xml:space="preserve" font-family="Helvetica-Light,Helvetica" font-size="24.0" fill="#FEFFFF" transform="matrix(1.00, 0.00, -0.00, -1.00, 426.3, 543.5)">r</text><text xml:space="preserve" font-family="Helvetica-Light,Helvetica" font-size="24.0" fill="#FEFFFF" transform="matrix(1.00, 0.00, -0.00, -1.00, 434.3, 543.5)">i</text><text xml:space="preserve" font-family="Helvetica-Light,Helvetica" font-size="24.0" fill="#FEFFFF" transform="matrix(1.00, 0.00, -0.00, -1.00, 439.6, 543.5)">t</text><text xml:space="preserve" font-family="Helvetica-Light,Helvetica" font-size="24.0" fill="#FEFFFF" transform="matrix(1.00, 0.00, -0.00, -1.00, 446.3, 543.5)">e</text><text xml:space="preserve" font-family="Helvetica-Light,Helvetica" font-size="24.0" fill="#FEFFFF" transform="matrix(1.00, 0.00, -0.00, -1.00, 459.6, 543.5)">r</text><text xml:space="preserve" font-family="Helvetica-Light,Helvetica" font-size="24.0" fill="#FEFFFF" transform="matrix(1.00, 0.00, -0.00, -1.00, 467.6, 543.5)">i</text><text xml:space="preserve" font-family="Helvetica-Light,Helvetica" font-size="24.0" fill="#FEFFFF" transform="matrix(1.00, 0.00, -0.00, -1.00, 472.9, 543.5)">a</text><text xml:space="preserve" font-family="Helvetica-Light,Helvetica" font-size="24.0" fill="#FEFFFF" transform="matrix(1.00, 0.00, -0.00, -1.00, 486.3, 543.5)"> </text></g></g><image xlink:href="../../B581CB2C-6C5F-4EB9-B176-04F9169BA198/assets/D6E45F1388B49E031CE46A70C8442936.png" width="137.00" height="28.00" transform="matrix(1.00, 0.00, -0.00, -1.00, 315.0, 534.0)"></image><g><clipPath id="clip0x7f9ffc6e1fc0"><path d="M 213.6 488.3 L 546.9 488.3 L 546.9 588.3 L 213.6 588.3 Z M 213.6 488.3 "></path></clipPath><g clip-path="url(#clip0x7f9ffc6e1fc0)"><text xml:space="preserve" font-family="Helvetica-Light,Helvetica" font-size="24.0" fill="#FEFFFF" transform="matrix(1.00, 0.00, -0.00, -1.00, 308.4, 514.5)"> </text><text xml:space="preserve" font-family="Helvetica-Light,Helvetica" font-size="24.0" fill="#FEFFFF" transform="matrix(1.00, 0.00, -0.00, -1.00, 315.1, 514.5)">(</text><text xml:space="preserve" font-family="Helvetica-Light,Helvetica" font-size="24.0" fill="#FEFFFF" transform="matrix(1.00, 0.00, -0.00, -1.00, 323.1, 514.5)">.</text><text xml:space="preserve" font-family="Helvetica-Light,Helvetica" font-size="24.0" fill="#FEFFFF" transform="matrix(1.00, 0.00, -0.00, -1.00, 329.8, 514.5)">f</text><text xml:space="preserve" font-family="Helvetica-Light,Helvetica" font-size="24.0" fill="#FEFFFF" transform="matrix(1.00, 0.00, -0.00, -1.00, 336.4, 514.5)">e</text><text xml:space="preserve" font-family="Helvetica-Light,Helvetica" font-size="24.0" fill="#FEFFFF" transform="matrix(1.00, 0.00, -0.00, -1.00, 349.8, 514.5)">a</text><text xml:space="preserve" font-family="Helvetica-Light,Helvetica" font-size="24.0" fill="#FEFFFF" transform="matrix(1.00, 0.00, -0.00, -1.00, 363.1, 514.5)">t</text><text xml:space="preserve" font-family="Helvetica-Light,Helvetica" font-size="24.0" fill="#FEFFFF" transform="matrix(1.00, 0.00, -0.00, -1.00, 369.8, 514.5)">u</text><text xml:space="preserve" font-family="Helvetica-Light,Helvetica" font-size="24.0" fill="#FEFFFF" transform="matrix(1.00, 0.00, -0.00, -1.00, 383.1, 514.5)">r</text><text xml:space="preserve" font-family="Helvetica-Light,Helvetica" font-size="24.0" fill="#FEFFFF" transform="matrix(1.00, 0.00, -0.00, -1.00, 390.7, 514.5)">e</text><text xml:space="preserve" font-family="Helvetica-Light,Helvetica" font-size="24.0" fill="#FEFFFF" transform="matrix(1.00, 0.00, -0.00, -1.00, 404.0, 514.5)"> </text><text xml:space="preserve" font-family="Helvetica-Light,Helvetica" font-size="24.0" fill="#FEFFFF" transform="matrix(1.00, 0.00, -0.00, -1.00, 410.7, 514.5)">ï¬</text><text xml:space="preserve" font-family="Helvetica-Light,Helvetica" font-size="24.0" fill="#FEFFFF" transform="matrix(1.00, 0.00, -0.00, -1.00, 422.7, 514.5)">l</text><text xml:space="preserve" font-family="Helvetica-Light,Helvetica" font-size="24.0" fill="#FEFFFF" transform="matrix(1.00, 0.00, -0.00, -1.00, 428.0, 514.5)">e</text><text xml:space="preserve" font-family="Helvetica-Light,Helvetica" font-size="24.0" fill="#FEFFFF" transform="matrix(1.00, 0.00, -0.00, -1.00, 441.4, 514.5)">)</text></g></g><g><clipPath id="clip0x7f9ffc6e7eb0"><path d="M 77.0 464.9 L 177.1 464.9 L 177.1 591.7 L 77.0 591.7 Z M 77.0 464.9 "></path></clipPath><g clip-path="url(#clip0x7f9ffc6e7eb0)"><image xlink:href="../../B581CB2C-6C5F-4EB9-B176-04F9169BA198/assets/41B78E34D1F2715DF3AFDC894B23E8E7.png" width="100.00" height="127.00" transform="matrix(1.00, 0.00, -0.00, -1.00, 77.0, 591.7)" opacity="0.70"></image><image xlink:href="../../B581CB2C-6C5F-4EB9-B176-04F9169BA198/assets/1EF46E39BDD71D179CD5AF24C58EBDDE.png" width="2000.00" height="2887.00" transform="matrix(0.03, 0.00, -0.00, -0.03, 97.0, 581.7)"></image></g></g><g><clipPath id="clip0x7f9ffc7c07c0"><path d="M 209.4 275.6 L 890.5 275.6 L 890.5 389.6 L 209.4 389.6 Z M 209.4 275.6 "></path></clipPath><g clip-path="url(#clip0x7f9ffc7c07c0)"><image xlink:href="../../0738260A-CDD4-4D00-A704-1922E09D0BC6/assets/7AC0399FCF4D4014BB99ACDB57A650F7.png" width="679.00" height="112.00" transform="matrix(1.00, 0.00, -0.00, -1.00, 210.4, 388.6)" opacity="0.80"></image><path d="M 216.4 297.6 L 216.0 367.6 C 216.0 375.9 223.2 383.0 231.4 383.0 L 868.5 383.0 C 876.8 383.0 884.0 375.9 884.0 367.6 L 884.0 297.6 C 884.0 289.3 876.8 283.0 868.5 283.0 L 231.4 283.0 C 223.2 283.0 216.4 289.3 216.4 297.6 Z M 216.4 297.6 " fill="#00397A"></path></g></g><image xlink:href="../../0738260A-CDD4-4D00-A704-1922E09D0BC6/assets/0F58AD58108FD739510484F3D40E3197.png" width="413.00" height="28.00" transform="matrix(1.00, 0.00, -0.00, -1.00, 345.0, 343.0)"></image><g><clipPath id="clip0x7f9ffc6e94c0"><path d="M 213.8 282.6 L 888.9 282.6 L 888.9 382.6 L 213.8 382.6 Z M 213.8 282.6 "></path></clipPath><g clip-path="url(#clip0x7f9ffc6e94c0)"><text xml:space="preserve" font-family="Helvetica-Light,Helvetica" font-size="24.0" fill="#FEFFFF" transform="matrix(1.00, 0.00, -0.00, -1.00, 344.6, 323.5)">P</text><text xml:space="preserve" font-family="Helvetica-Light,Helvetica" font-size="24.0" fill="#FEFFFF" transform="matrix(1.00, 0.00, -0.00, -1.00, 359.3, 323.5)">a</text><text xml:space="preserve" font-family="Helvetica-Light,Helvetica" font-size="24.0" fill="#FEFFFF" transform="matrix(1.00, 0.00, -0.00, -1.00, 372.6, 323.5)">g</text><text xml:space="preserve" font-family="Helvetica-Light,Helvetica" font-size="24.0" fill="#FEFFFF" transform="matrix(1.00, 0.00, -0.00, -1.00, 387.3, 323.5)">e</text><text xml:space="preserve" font-family="Helvetica-Light,Helvetica" font-size="24.0" fill="#FEFFFF" transform="matrix(1.00, 0.00, -0.00, -1.00, 400.6, 323.5)">/</text><text xml:space="preserve" font-family="Helvetica-Light,Helvetica" font-size="24.0" fill="#FEFFFF" transform="matrix(1.00, 0.00, -0.00, -1.00, 407.3, 323.5)">B</text><text xml:space="preserve" font-family="Helvetica-Light,Helvetica" font-size="24.0" fill="#FEFFFF" transform="matrix(1.00, 0.00, -0.00, -1.00, 423.3, 323.5)">l</text><text xml:space="preserve" font-family="Helvetica-Light,Helvetica" font-size="24.0" fill="#FEFFFF" transform="matrix(1.00, 0.00, -0.00, -1.00, 428.6, 323.5)">o</text><text xml:space="preserve" font-family="Helvetica-Light,Helvetica" font-size="24.0" fill="#FEFFFF" transform="matrix(1.00, 0.00, -0.00, -1.00, 442.0, 323.5)">c</text><text xml:space="preserve" font-family="Helvetica-Light,Helvetica" font-size="24.0" fill="#FEFFFF" transform="matrix(1.00, 0.00, -0.00, -1.00, 455.3, 323.5)">k</text><text xml:space="preserve" font-family="Helvetica-Light,Helvetica" font-size="24.0" fill="#FEFFFF" transform="matrix(1.00, 0.00, -0.00, -1.00, 467.3, 323.5)"> </text><text xml:space="preserve" font-family="Helvetica-Light,Helvetica" font-size="24.0" fill="#FEFFFF" transform="matrix(1.00, 0.00, -0.00, -1.00, 474.0, 323.5)">A</text><text xml:space="preserve" font-family="Helvetica-Light,Helvetica" font-size="24.0" fill="#FEFFFF" transform="matrix(1.00, 0.00, -0.00, -1.00, 490.0, 323.5)">b</text><text xml:space="preserve" font-family="Helvetica-Light,Helvetica" font-size="24.0" fill="#FEFFFF" transform="matrix(1.00, 0.00, -0.00, -1.00, 504.7, 323.5)">s</text><text xml:space="preserve" font-family="Helvetica-Light,Helvetica" font-size="24.0" fill="#FEFFFF" transform="matrix(1.00, 0.00, -0.00, -1.00, 516.7, 323.5)">t</text><text xml:space="preserve" font-family="Helvetica-Light,Helvetica" font-size="24.0" fill="#FEFFFF" transform="matrix(1.00, 0.00, -0.00, -1.00, 523.3, 323.5)">r</text><text xml:space="preserve" font-family="Helvetica-Light,Helvetica" font-size="24.0" fill="#FEFFFF" transform="matrix(1.00, 0.00, -0.00, -1.00, 531.3, 323.5)">a</text><text xml:space="preserve" font-family="Helvetica-Light,Helvetica" font-size="24.0" fill="#FEFFFF" transform="matrix(1.00, 0.00, -0.00, -1.00, 544.7, 323.5)">c</text><text xml:space="preserve" font-family="Helvetica-Light,Helvetica" font-size="24.0" fill="#FEFFFF" transform="matrix(1.00, 0.00, -0.00, -1.00, 558.0, 323.5)">t</text><text xml:space="preserve" font-family="Helvetica-Light,Helvetica" font-size="24.0" fill="#FEFFFF" transform="matrix(1.00, 0.00, -0.00, -1.00, 564.7, 323.5)">i</text><text xml:space="preserve" font-family="Helvetica-Light,Helvetica" font-size="24.0" fill="#FEFFFF" transform="matrix(1.00, 0.00, -0.00, -1.00, 570.0, 323.5)">o</text><text xml:space="preserve" font-family="Helvetica-Light,Helvetica" font-size="24.0" fill="#FEFFFF" transform="matrix(1.00, 0.00, -0.00, -1.00, 583.4, 323.5)">n</text><text xml:space="preserve" font-family="Helvetica-Light,Helvetica" font-size="24.0" fill="#FEFFFF" transform="matrix(1.00, 0.00, -0.00, -1.00, 596.7, 323.5)">s</text><text xml:space="preserve" font-family="Helvetica-Light,Helvetica" font-size="24.0" fill="#FEFFFF" transform="matrix(1.00, 0.00, -0.00, -1.00, 608.7, 323.5)"> </text><text xml:space="preserve" font-family="Helvetica-Light,Helvetica" font-size="24.0" fill="#FEFFFF" transform="matrix(1.00, 0.00, -0.00, -1.00, 615.4, 323.5)">(</text><text xml:space="preserve" font-family="Helvetica-Light,Helvetica" font-size="24.0" fill="#FEFFFF" transform="matrix(1.00, 0.00, -0.00, -1.00, 623.4, 323.5)">B</text><text xml:space="preserve" font-family="Helvetica-Light,Helvetica" font-size="24.0" fill="#FEFFFF" transform="matrix(1.00, 0.00, -0.00, -1.00, 639.4, 323.5)">u</text><text xml:space="preserve" font-family="Helvetica-Light,Helvetica" font-size="24.0" fill="#FEFFFF" transform="matrix(1.00, 0.00, -0.00, -1.00, 652.7, 323.5)">m</text><text xml:space="preserve" font-family="Helvetica-Light,Helvetica" font-size="24.0" fill="#FEFFFF" transform="matrix(1.00, 0.00, -0.00, -1.00, 672.7, 323.5)">b</text><text xml:space="preserve" font-family="Helvetica-Light,Helvetica" font-size="24.0" fill="#FEFFFF" transform="matrix(1.00, 0.00, -0.00, -1.00, 687.4, 323.5)">l</text><text xml:space="preserve" font-family="Helvetica-Light,Helvetica" font-size="24.0" fill="#FEFFFF" transform="matrix(1.00, 0.00, -0.00, -1.00, 692.7, 323.5)">e</text><text xml:space="preserve" font-family="Helvetica-Light,Helvetica" font-size="24.0" fill="#FEFFFF" transform="matrix(1.00, 0.00, -0.00, -1.00, 706.0, 323.5)">b</text><text xml:space="preserve" font-family="Helvetica-Light,Helvetica" font-size="24.0" fill="#FEFFFF" transform="matrix(1.00, 0.00, -0.00, -1.00, 720.7, 323.5)">e</text><text xml:space="preserve" font-family="Helvetica-Light,Helvetica" font-size="24.0" fill="#FEFFFF" transform="matrix(1.00, 0.00, -0.00, -1.00, 734.0, 323.5)">e</text><text xml:space="preserve" font-family="Helvetica-Light,Helvetica" font-size="24.0" fill="#FEFFFF" transform="matrix(1.00, 0.00, -0.00, -1.00, 747.4, 323.5)">)</text></g></g><g><clipPath id="clip0x7f9ffc6f7d50"><path d="M 207.7 172.7 L 891.8 172.7 L 891.8 286.7 L 207.7 286.7 Z M 207.7 172.7 "></path></clipPath><g clip-path="url(#clip0x7f9ffc6f7d50)"><image xlink:href="../../0738260A-CDD4-4D00-A704-1922E09D0BC6/assets/9042775F1D45FAA56095C72B3BE3405A.png" width="682.00" height="112.00" transform="matrix(1.00, 0.00, -0.00, -1.00, 208.7, 285.7)" opacity="0.80"></image><path d="M 214.7 194.7 L 215.0 264.7 C 215.0 273.0 221.4 280.0 229.7 280.0 L 869.8 280.0 C 878.1 280.0 885.0 273.0 885.0 264.7 L 885.0 194.7 C 885.0 186.4 878.1 180.0 869.8 180.0 L 229.7 180.0 C 221.4 180.0 214.7 186.4 214.7 194.7 Z M 214.7 194.7 " fill="#002451"></path></g></g><image xlink:href="../../0738260A-CDD4-4D00-A704-1922E09D0BC6/assets/E198F268202D9B3554807C5A84D3E017.png" width="302.00" height="27.00" transform="matrix(1.00, 0.00, -0.00, -1.00, 399.0, 240.0)"></image><g><clipPath id="clip0x7f9ffc6fb0f0"><path d="M 212.1 179.7 L 890.2 179.7 L 890.2 279.7 L 212.1 279.7 Z M 212.1 179.7 "></path></clipPath><g clip-path="url(#clip0x7f9ffc6fb0f0)"><text xml:space="preserve" font-family="Helvetica-Light,Helvetica" font-size="24.0" fill="#FEFFFF" transform="matrix(1.00, 0.00, -0.00, -1.00, 400.6, 220.6)">W</text><text xml:space="preserve" font-family="Helvetica-Light,Helvetica" font-size="24.0" fill="#FEFFFF" transform="matrix(1.00, 0.00, -0.00, -1.00, 421.5, 220.6)">e</text><text xml:space="preserve" font-family="Helvetica-Light,Helvetica" font-size="24.0" fill="#FEFFFF" transform="matrix(1.00, 0.00, -0.00, -1.00, 434.9, 220.6)">b</text><text xml:space="preserve" font-family="Helvetica-Light,Helvetica" font-size="24.0" fill="#FEFFFF" transform="matrix(1.00, 0.00, -0.00, -1.00, 449.5, 220.6)"> </text><text xml:space="preserve" font-family="Helvetica-Light,Helvetica" font-size="24.0" fill="#FEFFFF" transform="matrix(1.00, 0.00, -0.00, -1.00, 456.2, 220.6)">A</text><text xml:space="preserve" font-family="Helvetica-Light,Helvetica" font-size="24.0" fill="#FEFFFF" transform="matrix(1.00, 0.00, -0.00, -1.00, 472.2, 220.6)">u</text><text xml:space="preserve" font-family="Helvetica-Light,Helvetica" font-size="24.0" fill="#FEFFFF" transform="matrix(1.00, 0.00, -0.00, -1.00, 485.6, 220.6)">t</text><text xml:space="preserve" font-family="Helvetica-Light,Helvetica" font-size="24.0" fill="#FEFFFF" transform="matrix(1.00, 0.00, -0.00, -1.00, 492.2, 220.6)">o</text><text xml:space="preserve" font-family="Helvetica-Light,Helvetica" font-size="24.0" fill="#FEFFFF" transform="matrix(1.00, 0.00, -0.00, -1.00, 505.6, 220.6)">m</text><text xml:space="preserve" font-family="Helvetica-Light,Helvetica" font-size="24.0" fill="#FEFFFF" transform="matrix(1.00, 0.00, -0.00, -1.00, 525.6, 220.6)">a</text><text xml:space="preserve" font-family="Helvetica-Light,Helvetica" font-size="24.0" fill="#FEFFFF" transform="matrix(1.00, 0.00, -0.00, -1.00, 538.9, 220.6)">t</text><text xml:space="preserve" font-family="Helvetica-Light,Helvetica" font-size="24.0" fill="#FEFFFF" transform="matrix(1.00, 0.00, -0.00, -1.00, 545.6, 220.6)">i</text><text xml:space="preserve" font-family="Helvetica-Light,Helvetica" font-size="24.0" fill="#FEFFFF" transform="matrix(1.00, 0.00, -0.00, -1.00, 550.9, 220.6)">o</text><text xml:space="preserve" font-family="Helvetica-Light,Helvetica" font-size="24.0" fill="#FEFFFF" transform="matrix(1.00, 0.00, -0.00, -1.00, 564.3, 220.6)">n</text><text xml:space="preserve" font-family="Helvetica-Light,Helvetica" font-size="24.0" fill="#FEFFFF" transform="matrix(1.00, 0.00, -0.00, -1.00, 577.6, 220.6)"> </text><text xml:space="preserve" font-family="Helvetica-Light,Helvetica" font-size="24.0" fill="#FEFFFF" transform="matrix(1.00, 0.00, -0.00, -1.00, 584.3, 220.6)">(</text><text xml:space="preserve" font-family="Helvetica-Light,Helvetica" font-size="24.0" fill="#FEFFFF" transform="matrix(1.00, 0.00, -0.00, -1.00, 592.3, 220.6)">S</text><text xml:space="preserve" font-family="Helvetica-Light,Helvetica" font-size="24.0" fill="#FEFFFF" transform="matrix(1.00, 0.00, -0.00, -1.00, 606.9, 220.6)">e</text><text xml:space="preserve" font-family="Helvetica-Light,Helvetica" font-size="24.0" fill="#FEFFFF" transform="matrix(1.00, 0.00, -0.00, -1.00, 620.3, 220.6)">l</text><text xml:space="preserve" font-family="Helvetica-Light,Helvetica" font-size="24.0" fill="#FEFFFF" transform="matrix(1.00, 0.00, -0.00, -1.00, 625.6, 220.6)">e</text><text xml:space="preserve" font-family="Helvetica-Light,Helvetica" font-size="24.0" fill="#FEFFFF" transform="matrix(1.00, 0.00, -0.00, -1.00, 638.9, 220.6)">n</text><text xml:space="preserve" font-family="Helvetica-Light,Helvetica" font-size="24.0" fill="#FEFFFF" transform="matrix(1.00, 0.00, -0.00, -1.00, 652.3, 220.6)">i</text><text xml:space="preserve" font-family="Helvetica-Light,Helvetica" font-size="24.0" fill="#FEFFFF" transform="matrix(1.00, 0.00, -0.00, -1.00, 657.6, 220.6)">u</text><text xml:space="preserve" font-family="Helvetica-Light,Helvetica" font-size="24.0" fill="#FEFFFF" transform="matrix(1.00, 0.00, -0.00, -1.00, 671.0, 220.6)">m</text><text xml:space="preserve" font-family="Helvetica-Light,Helvetica" font-size="24.0" fill="#FEFFFF" transform="matrix(1.00, 0.00, -0.00, -1.00, 690.9, 220.6)">)</text></g></g><g><clipPath id="clip0x7f9ffe009c60"><path d="M 62.6 168.2 L 184.1 168.2 L 184.1 289.7 L 62.6 289.7 Z M 62.6 168.2 "></path></clipPath><g clip-path="url(#clip0x7f9ffe009c60)"><image xlink:href="../../0738260A-CDD4-4D00-A704-1922E09D0BC6/assets/E2797C8F8FCC6F232DC3A5C69F64D8D6.png" width="122.00" height="122.00" transform="matrix(1.00, 0.00, -0.00, -1.00, 62.6, 289.7)" opacity="0.70"></image><image xlink:href="../../0738260A-CDD4-4D00-A704-1922E09D0BC6/assets/31A24C0084BCBF9064952478455AB7E0.png" width="512.00" height="512.00" transform="matrix(0.16, 0.00, -0.00, -0.16, 82.6, 279.7)"></image></g></g><g><clipPath id="clip0x7f9ffe00b050"><path d="M 542.8 378.4 L 889.5 378.4 L 889.5 492.4 L 542.8 492.4 Z M 542.8 378.4 "></path></clipPath><g clip-path="url(#clip0x7f9ffe00b050)"><image xlink:href="../../0738260A-CDD4-4D00-A704-1922E09D0BC6/assets/09A81F18FC4C7F5638EF3671086ABA93.png" width="345.00" height="112.00" transform="matrix(1.00, 0.00, -0.00, -1.00, 543.8, 491.4)" opacity="0.80"></image><path d="M 549.8 400.4 L 550.0 470.4 C 550.0 478.7 556.5 485.0 564.8 485.0 L 867.5 485.0 C 875.8 485.0 883.0 478.7 883.0 470.4 L 883.0 400.4 C 883.0 392.1 875.8 385.0 867.5 385.0 L 564.8 385.0 C 556.5 385.0 549.8 392.1 549.8 400.4 Z M 549.8 400.4 " fill="#0065C0"></path></g></g><image xlink:href="../../0738260A-CDD4-4D00-A704-1922E09D0BC6/assets/8C00B2E1CEC47BB8D11C12DACFABD3EB.png" width="279.00" height="28.00" transform="matrix(1.00, 0.00, -0.00, -1.00, 578.0, 446.0)"></image><g><clipPath id="clip0x7f9ffc7d3a30"><path d="M 547.1 385.4 L 887.9 385.4 L 887.9 485.4 L 547.1 485.4 Z M 547.1 385.4 "></path></clipPath><g clip-path="url(#clip0x7f9ffc7d3a30)"><text xml:space="preserve" font-family="Helvetica-Light,Helvetica" font-size="24.0" fill="#FEFFFF" transform="matrix(1.00, 0.00, -0.00, -1.00, 577.7, 426.3)">L</text><text xml:space="preserve" font-family="Helvetica-Light,Helvetica" font-size="24.0" fill="#FEFFFF" transform="matrix(1.00, 0.00, -0.00, -1.00, 591.0, 426.3)">o</text><text xml:space="preserve" font-family="Helvetica-Light,Helvetica" font-size="24.0" fill="#FEFFFF" transform="matrix(1.00, 0.00, -0.00, -1.00, 604.4, 426.3)">a</text><text xml:space="preserve" font-family="Helvetica-Light,Helvetica" font-size="24.0" fill="#FEFFFF" transform="matrix(1.00, 0.00, -0.00, -1.00, 617.7, 426.3)">d</text><text xml:space="preserve" font-family="Helvetica-Light,Helvetica" font-size="24.0" fill="#FEFFFF" transform="matrix(1.00, 0.00, -0.00, -1.00, 632.4, 426.3)"> </text><text xml:space="preserve" font-family="Helvetica-Light,Helvetica" font-size="24.0" fill="#FEFFFF" transform="matrix(1.00, 0.00, -0.00, -1.00, 639.0, 426.3)">T</text><text xml:space="preserve" font-family="Helvetica-Light,Helvetica" font-size="24.0" fill="#FEFFFF" transform="matrix(1.00, 0.00, -0.00, -1.00, 649.7, 426.3)">e</text><text xml:space="preserve" font-family="Helvetica-Light,Helvetica" font-size="24.0" fill="#FEFFFF" transform="matrix(1.00, 0.00, -0.00, -1.00, 663.1, 426.3)">s</text><text xml:space="preserve" font-family="Helvetica-Light,Helvetica" font-size="24.0" fill="#FEFFFF" transform="matrix(1.00, 0.00, -0.00, -1.00, 675.1, 426.3)">t</text><text xml:space="preserve" font-family="Helvetica-Light,Helvetica" font-size="24.0" fill="#FEFFFF" transform="matrix(1.00, 0.00, -0.00, -1.00, 681.7, 426.3)">s</text><text xml:space="preserve" font-family="Helvetica-Light,Helvetica" font-size="24.0" fill="#FEFFFF" transform="matrix(1.00, 0.00, -0.00, -1.00, 693.7, 426.3)"> </text><text xml:space="preserve" font-family="Helvetica-Light,Helvetica" font-size="24.0" fill="#FEFFFF" transform="matrix(1.00, 0.00, -0.00, -1.00, 700.4, 426.3)">(</text><text xml:space="preserve" font-family="Helvetica-Light,Helvetica" font-size="24.0" fill="#FEFFFF" transform="matrix(1.00, 0.00, -0.00, -1.00, 708.4, 426.3)">V</text><text xml:space="preserve" font-family="Helvetica-Light,Helvetica" font-size="24.0" fill="#FEFFFF" transform="matrix(1.00, 0.00, -0.00, -1.00, 722.6, 426.3)">i</text><text xml:space="preserve" font-family="Helvetica-Light,Helvetica" font-size="24.0" fill="#FEFFFF" transform="matrix(1.00, 0.00, -0.00, -1.00, 728.0, 426.3)">s</text><text xml:space="preserve" font-family="Helvetica-Light,Helvetica" font-size="24.0" fill="#FEFFFF" transform="matrix(1.00, 0.00, -0.00, -1.00, 740.0, 426.3)">u</text><text xml:space="preserve" font-family="Helvetica-Light,Helvetica" font-size="24.0" fill="#FEFFFF" transform="matrix(1.00, 0.00, -0.00, -1.00, 753.3, 426.3)">a</text><text xml:space="preserve" font-family="Helvetica-Light,Helvetica" font-size="24.0" fill="#FEFFFF" transform="matrix(1.00, 0.00, -0.00, -1.00, 766.6, 426.3)">l</text><text xml:space="preserve" font-family="Helvetica-Light,Helvetica" font-size="24.0" fill="#FEFFFF" transform="matrix(1.00, 0.00, -0.00, -1.00, 772.0, 426.3)"> </text><text xml:space="preserve" font-family="Helvetica-Light,Helvetica" font-size="24.0" fill="#FEFFFF" transform="matrix(1.00, 0.00, -0.00, -1.00, 778.6, 426.3)">S</text><text xml:space="preserve" font-family="Helvetica-Light,Helvetica" font-size="24.0" fill="#FEFFFF" transform="matrix(1.00, 0.00, -0.00, -1.00, 793.3, 426.3)">t</text><text xml:space="preserve" font-family="Helvetica-Light,Helvetica" font-size="24.0" fill="#FEFFFF" transform="matrix(1.00, 0.00, -0.00, -1.00, 800.0, 426.3)">u</text><text xml:space="preserve" font-family="Helvetica-Light,Helvetica" font-size="24.0" fill="#FEFFFF" transform="matrix(1.00, 0.00, -0.00, -1.00, 813.3, 426.3)">d</text><text xml:space="preserve" font-family="Helvetica-Light,Helvetica" font-size="24.0" fill="#FEFFFF" transform="matrix(1.00, 0.00, -0.00, -1.00, 828.0, 426.3)">i</text><text xml:space="preserve" font-family="Helvetica-Light,Helvetica" font-size="24.0" fill="#FEFFFF" transform="matrix(1.00, 0.00, -0.00, -1.00, 833.3, 426.3)">o</text><text xml:space="preserve" font-family="Helvetica-Light,Helvetica" font-size="24.0" fill="#FEFFFF" transform="matrix(1.00, 0.00, -0.00, -1.00, 846.7, 426.3)">)</text></g></g><g><clipPath id="clip0x7f9ffc7dee00"><path d="M 886.7 370.4 L 1000.5 370.4 L 1000.5 480.5 L 886.7 480.5 Z M 886.7 370.4 "></path></clipPath><g clip-path="url(#clip0x7f9ffc7dee00)"><image xlink:href="../../0738260A-CDD4-4D00-A704-1922E09D0BC6/assets/A3CFCC034C3B86AAAFC5FA7DF5350E11.png" width="114.00" height="110.00" transform="matrix(1.00, 0.00, -0.00, -1.00, 886.7, 480.5)" opacity="0.70"></image><image xlink:href="../../0738260A-CDD4-4D00-A704-1922E09D0BC6/assets/44EDD40918203C06A92F2EEAC9083E33.png" width="600.00" height="570.00" transform="matrix(0.12, 0.00, -0.00, -0.12, 906.7, 470.5)"></image></g></g><g><clipPath id="clip0x7f9ffe00de40"><path d="M 930.0 462.0 L 957.0 462.0 L 957.0 436.0 L 930.0 436.0 Z M 930.5 461.9 "></path></clipPath><g clip-path="url(#clip0x7f9ffe00de40)"><g><clipPath id="clip0x7f9ffe00ebc0"><path d="M 930.5 435.6 L 956.7 435.6 L 956.7 461.9 L 930.5 461.9 Z M 930.5 435.6 "></path></clipPath><g clip-path="url(#clip0x7f9ffe00ebc0)"><image xlink:href="../../0738260A-CDD4-4D00-A704-1922E09D0BC6/assets/7463D99FC55CCFCA5284A104204DE0AE.png" width="128.00" height="128.00" transform="matrix(0.21, 0.00, -0.00, -0.21, 930.5, 461.9)"></image></g></g></g></g><g><clipPath id="clip0x7f9ffc7e0340"><path d="M 208.7 378.4 L 549.1 378.4 L 549.1 492.4 L 208.7 492.4 Z M 208.7 378.4 "></path></clipPath><g clip-path="url(#clip0x7f9ffc7e0340)"><image xlink:href="../../0738260A-CDD4-4D00-A704-1922E09D0BC6/assets/B461B48F6523032A6EE1F3D7E12E9B98.png" width="338.00" height="112.00" transform="matrix(1.00, 0.00, -0.00, -1.00, 209.7, 491.4)" opacity="0.80"></image><path d="M 215.7 400.4 L 216.0 470.4 C 216.0 478.7 222.4 485.0 230.7 485.0 L 527.1 485.0 C 535.4 485.0 542.0 478.7 542.0 470.4 L 542.0 400.4 C 542.0 392.1 535.4 385.0 527.1 385.0 L 230.7 385.0 C 222.4 385.0 215.7 392.1 215.7 400.4 Z M 215.7 400.4 " fill="#0065C0"></path></g></g><image xlink:href="../../0738260A-CDD4-4D00-A704-1922E09D0BC6/assets/102C3BFF84401B5A4B1D4DE51F60C19B.png" width="281.00" height="28.00" transform="matrix(1.00, 0.00, -0.00, -1.00, 239.0, 446.0)"></image><g><clipPath id="clip0x7f9ffc38b2b0"><path d="M 213.0 385.4 L 547.4 385.4 L 547.4 485.4 L 213.0 485.4 Z M 213.0 385.4 "></path></clipPath><g clip-path="url(#clip0x7f9ffc38b2b0)"><text xml:space="preserve" font-family="Helvetica-Light,Helvetica" font-size="24.0" fill="#FEFFFF" transform="matrix(1.00, 0.00, -0.00, -1.00, 239.5, 426.3)">S</text><text xml:space="preserve" font-family="Helvetica-Light,Helvetica" font-size="24.0" fill="#FEFFFF" transform="matrix(1.00, 0.00, -0.00, -1.00, 254.2, 426.3)">t</text><text xml:space="preserve" font-family="Helvetica-Light,Helvetica" font-size="24.0" fill="#FEFFFF" transform="matrix(1.00, 0.00, -0.00, -1.00, 260.9, 426.3)">e</text><text xml:space="preserve" font-family="Helvetica-Light,Helvetica" font-size="24.0" fill="#FEFFFF" transform="matrix(1.00, 0.00, -0.00, -1.00, 274.2, 426.3)">p</text><text xml:space="preserve" font-family="Helvetica-Light,Helvetica" font-size="24.0" fill="#FEFFFF" transform="matrix(1.00, 0.00, -0.00, -1.00, 288.9, 426.3)"> </text><text xml:space="preserve" font-family="Helvetica-Light,Helvetica" font-size="24.0" fill="#FEFFFF" transform="matrix(1.00, 0.00, -0.00, -1.00, 295.6, 426.3)">B</text><text xml:space="preserve" font-family="Helvetica-Light,Helvetica" font-size="24.0" fill="#FEFFFF" transform="matrix(1.00, 0.00, -0.00, -1.00, 311.6, 426.3)">i</text><text xml:space="preserve" font-family="Helvetica-Light,Helvetica" font-size="24.0" fill="#FEFFFF" transform="matrix(1.00, 0.00, -0.00, -1.00, 316.9, 426.3)">n</text><text xml:space="preserve" font-family="Helvetica-Light,Helvetica" font-size="24.0" fill="#FEFFFF" transform="matrix(1.00, 0.00, -0.00, -1.00, 330.2, 426.3)">d</text><text xml:space="preserve" font-family="Helvetica-Light,Helvetica" font-size="24.0" fill="#FEFFFF" transform="matrix(1.00, 0.00, -0.00, -1.00, 344.9, 426.3)">i</text><text xml:space="preserve" font-family="Helvetica-Light,Helvetica" font-size="24.0" fill="#FEFFFF" transform="matrix(1.00, 0.00, -0.00, -1.00, 350.2, 426.3)">n</text><text xml:space="preserve" font-family="Helvetica-Light,Helvetica" font-size="24.0" fill="#FEFFFF" transform="matrix(1.00, 0.00, -0.00, -1.00, 363.6, 426.3)">g</text><text xml:space="preserve" font-family="Helvetica-Light,Helvetica" font-size="24.0" fill="#FEFFFF" transform="matrix(1.00, 0.00, -0.00, -1.00, 378.2, 426.3)">s</text><text xml:space="preserve" font-family="Helvetica-Light,Helvetica" font-size="24.0" fill="#FEFFFF" transform="matrix(1.00, 0.00, -0.00, -1.00, 390.2, 426.3)"> </text><text xml:space="preserve" font-family="Helvetica-Light,Helvetica" font-size="24.0" fill="#FEFFFF" transform="matrix(1.00, 0.00, -0.00, -1.00, 396.9, 426.3)">(</text><text xml:space="preserve" font-family="Helvetica-Light,Helvetica" font-size="24.0" fill="#FEFFFF" transform="matrix(1.00, 0.00, -0.00, -1.00, 404.9, 426.3)">S</text><text xml:space="preserve" font-family="Helvetica-Light,Helvetica" font-size="24.0" fill="#FEFFFF" transform="matrix(1.00, 0.00, -0.00, -1.00, 419.6, 426.3)">p</text><text xml:space="preserve" font-family="Helvetica-Light,Helvetica" font-size="24.0" fill="#FEFFFF" transform="matrix(1.00, 0.00, -0.00, -1.00, 434.2, 426.3)">e</text><text xml:space="preserve" font-family="Helvetica-Light,Helvetica" font-size="24.0" fill="#FEFFFF" transform="matrix(1.00, 0.00, -0.00, -1.00, 447.6, 426.3)">c</text><text xml:space="preserve" font-family="Helvetica-Light,Helvetica" font-size="24.0" fill="#FEFFFF" transform="matrix(1.00, 0.00, -0.00, -1.00, 460.9, 426.3)">F</text><text xml:space="preserve" font-family="Helvetica-Light,Helvetica" font-size="24.0" fill="#FEFFFF" transform="matrix(1.00, 0.00, -0.00, -1.00, 474.3, 426.3)">l</text><text xml:space="preserve" font-family="Helvetica-Light,Helvetica" font-size="24.0" fill="#FEFFFF" transform="matrix(1.00, 0.00, -0.00, -1.00, 479.6, 426.3)">o</text><text xml:space="preserve" font-family="Helvetica-Light,Helvetica" font-size="24.0" fill="#FEFFFF" transform="matrix(1.00, 0.00, -0.00, -1.00, 492.9, 426.3)">w</text><text xml:space="preserve" font-family="Helvetica-Light,Helvetica" font-size="24.0" fill="#FEFFFF" transform="matrix(1.00, 0.00, -0.00, -1.00, 510.3, 426.3)">)</text></g></g><g><clipPath id="clip0x7f9ffc3ae360"><path d="M 68.4 366.7 L 185.8 366.7 L 185.8 484.1 L 68.4 484.1 Z M 68.4 366.7 "></path></clipPath><g clip-path="url(#clip0x7f9ffc3ae360)"><image xlink:href="../../0738260A-CDD4-4D00-A704-1922E09D0BC6/assets/0AF7B2DC9F39C8B2D7174F9DC22B1930.png" width="117.00" height="117.00" transform="matrix(1.00, 0.00, -0.00, -1.00, 68.4, 484.1)" opacity="0.70"></image><image xlink:href="../../0738260A-CDD4-4D00-A704-1922E09D0BC6/assets/DE2DC7BCFDAFAD5E9A2497BCB4DE5460.png" width="512.00" height="512.00" transform="matrix(0.15, 0.00, -0.00, -0.15, 88.4, 474.1)"></image></g></g><g><clipPath id="clip0x7f9ffe00fee0"><path d="M 114.0 463.0 L 140.0 463.0 L 140.0 437.0 L 114.0 437.0 Z M 114.2 463.4 "></path></clipPath><g clip-path="url(#clip0x7f9ffe00fee0)"><g><clipPath id="clip0x7f9ffe010640"><path d="M 114.2 437.1 L 140.5 437.1 L 140.5 463.4 L 114.2 463.4 Z M 114.2 437.1 "></path></clipPath><g clip-path="url(#clip0x7f9ffe010640)"><image xlink:href="../../0738260A-CDD4-4D00-A704-1922E09D0BC6/assets/7463D99FC55CCFCA5284A104204DE0AE.png" width="128.00" height="128.00" transform="matrix(0.21, 0.00, -0.00, -0.21, 114.2, 463.4)"></image></g></g></g></g><g><clipPath id="clip0x7f9ffe011330"><path d="M 361.9 468.2 L 361.9 513.4 L 373.5 513.4 L 373.5 468.2 Z M 361.9 468.2 "></path></clipPath><g clip-path="url(#clip0x7f9ffe011330)"><path d="M -0.2 0.3 L 33.6 0.3 L 34.8 0.3 " fill="none" stroke="#FEFFFE" stroke-width="2.00" transform="matrix(0.00, 1.00, 1.00, 0.00, 367.7, 469.2)"></path><path d="M 372.8 503.0 L 368.0 512.6 L 363.2 503.0 Z M 372.8 503.0 " fill="#FEFFFE"></path></g></g><g><clipPath id="clip0x7f9ffe013790"><path d="M 373.5 408.7 L 373.5 359.3 L 361.9 359.3 L 361.9 408.7 Z M 373.5 408.7 "></path></clipPath><g clip-path="url(#clip0x7f9ffe013790)"><path d="M -0.3 -0.3 L 37.9 -0.3 L 38.7 -0.3 " fill="none" stroke="#FEFFFE" stroke-width="2.00" transform="matrix(0.00, -1.00, -1.00, 0.00, 367.7, 407.7)"></path><path d="M 363.2 370.0 L 368.0 360.4 L 372.8 370.0 Z M 363.2 370.0 " fill="#FEFFFE"></path></g></g><g><clipPath id="clip0x7f9ffe014dd0"><path d="M 116.9 358.5 L 116.9 396.4 L 128.5 396.4 L 128.5 358.5 Z M 116.9 358.5 "></path></clipPath><g clip-path="url(#clip0x7f9ffe014dd0)"><path d="M -0.5 0.3 L 26.3 0.3 L 27.5 0.3 " fill="none" stroke="#FEFFFE" stroke-width="2.00" transform="matrix(0.00, 1.00, 1.00, 0.00, 122.7, 359.5)"></path><path d="M 127.8 386.0 L 123.0 395.6 L 118.2 386.0 Z M 127.8 386.0 " fill="#FEFFFE"></path></g></g><g><clipPath id="clip0x7f9ffe016560"><path d="M 128.5 315.4 L 128.5 277.5 L 116.9 277.5 L 116.9 315.4 Z M 128.5 315.4 "></path></clipPath><g clip-path="url(#clip0x7f9ffe016560)"><path d="M 0.4 -0.3 L 26.3 -0.3 L 27.4 -0.3 " fill="none" stroke="#FEFFFE" stroke-width="2.00" transform="matrix(0.00, -1.00, -1.00, 0.00, 122.7, 314.4)"></path><path d="M 118.2 288.0 L 123.0 278.4 L 127.8 288.0 Z M 118.2 288.0 " fill="#FEFFFE"></path></g></g><g><clipPath id="clip0x7f9ffe017ba0"><path d="M 78.9 316.8 L 166.6 316.8 L 166.6 357.8 L 78.9 357.8 Z M 78.9 316.8 "></path></clipPath><g clip-path="url(#clip0x7f9ffe017ba0)"><text xml:space="preserve" font-family="Helvetica-Light,Helvetica" font-size="24.0" fill="#FEFFFF" transform="matrix(1.00, 0.00, -0.00, -1.00, 85.4, 328.3)">P</text><text xml:space="preserve" font-family="Helvetica-Light,Helvetica" font-size="24.0" fill="#FEFFFF" transform="matrix(1.00, 0.00, -0.00, -1.00, 100.1, 328.3)">a</text><text xml:space="preserve" font-family="Helvetica-Light,Helvetica" font-size="24.0" fill="#FEFFFF" transform="matrix(1.00, 0.00, -0.00, -1.00, 113.4, 328.3)">i</text><text xml:space="preserve" font-family="Helvetica-Light,Helvetica" font-size="24.0" fill="#FEFFFF" transform="matrix(1.00, 0.00, -0.00, -1.00, 118.7, 328.3)">r</text><text xml:space="preserve" font-family="Helvetica-Light,Helvetica" font-size="24.0" fill="#FEFFFF" transform="matrix(1.00, 0.00, -0.00, -1.00, 126.7, 328.3)">i</text><text xml:space="preserve" font-family="Helvetica-Light,Helvetica" font-size="24.0" fill="#FEFFFF" transform="matrix(1.00, 0.00, -0.00, -1.00, 132.1, 328.3)">n</text><text xml:space="preserve" font-family="Helvetica-Light,Helvetica" font-size="24.0" fill="#FEFFFF" transform="matrix(1.00, 0.00, -0.00, -1.00, 145.4, 328.3)">g</text></g></g></g></svg>